<svg xmlns="http://www.w3.org/2000/svg">
    <clipPath id="p.0">
        <path d="m0 0l300.0 0l0 100.0l-300.0 0l0 -100.0z" clip-rule="nonzero"/>
    </clipPath>
    <g clip-path="url(#p.0)">
        <path fill="#000000" fill-opacity="0.0" d="m0 0l300.0 0l0 100.0l-300.0 0z" fill-rule="evenodd"/>
        <path fill="#778dff" d="m16.667 -0.07611549l283.55347 0c6.713867E-4 0 0.0013122559 2.6358664E-4 0.0017700195 7.3277205E-4c4.8828125E-4 4.691854E-4 7.324219E-4 0.0011055395 7.324219E-4 0.0017690659l-0.0025024414 83.3305c0 9.204933 -7.4620667 16.667 -16.666992 16.667l-283.55347 0l4.3095309E-19 0c-0.0013817266 0 -0.0025018372 -0.0011138916 -0.0025018372 -0.0025024414l0.0025018372 -83.33049l0 0c0 -9.204931 7.46207 -16.667 16.667 -16.667z" fill-rule="evenodd"/>
        <path fill="#ffffff" d="m82.7322 73.92388l0 -47.71875l15.46875 0q8.78125 0 11.453125 0.71875q4.09375 1.078125 6.859375 4.671875q2.78125 3.593748 2.78125 9.296873q0 4.390625 -1.609375 7.390625q-1.59375 2.984375 -4.046875 4.703125q-2.453125 1.703125 -5.0 2.25q-3.4375 0.6875 -9.984375 0.6875l-6.28125 0l0 18.0l-9.640625 0zm9.640625 -39.640625l0 13.53125l5.265625 0q5.703125 0 7.625 -0.734375q1.921875 -0.75 3.0 -2.34375q1.09375 -1.609375 1.09375 -3.71875q0 -2.609375 -1.53125 -4.296875q-1.53125 -1.6875 -3.875 -2.109375q-1.71875 -0.328125 -6.921875 -0.328125l-4.65625 0zm34.849823 39.640625l0 -47.71875l20.281242 0q7.65625 0 11.109375 1.296875q3.46875 1.28125 5.546875 4.578123q2.09375 3.28125 2.09375 7.5q0 5.375 -3.15625 8.875q-3.15625 3.5 -9.4375 4.40625q3.125 1.828125 5.15625 4.015625q2.03125 2.171875 5.484375 7.734375l5.828125 9.3125l-11.53125 0l-6.953125 -10.375q-3.71875 -5.578125 -5.09375 -7.015625q-1.359375 -1.453125 -2.890625 -1.984375q-1.53125 -0.546875 -4.84375 -0.546875l-1.953125 0l0 19.921875l-9.640617 0zm9.640617 -27.53125l7.125 0q6.9375 0 8.65625 -0.578125q1.734375 -0.59375 2.703125 -2.03125q0.984375 -1.4375 0.984375 -3.578125q0 -2.40625 -1.296875 -3.890625q-1.28125 -1.484375 -3.625 -1.875q-1.171875 -0.15625 -7.03125 -0.15625l-7.515625 0l0 12.109375zm36.51201 3.96875q0 -7.296875 2.1875 -12.234375q1.625 -3.65625 4.4375 -6.546873q2.8125 -2.890625 6.171875 -4.296875q4.453125 -1.890625 10.28125 -1.890625q10.546875 0 16.875 6.546875q6.328125 6.546873 6.328125 18.187498q0 11.5625 -6.28125 18.09375q-6.28125 6.515625 -16.78125 6.515625q-10.65625 0 -16.9375 -6.484375q-6.28125 -6.5 -6.28125 -17.890625zm9.9375 -0.328125q0 8.109375 3.734375 12.296875q3.75 4.171875 9.5 4.171875q5.765625 0 9.453125 -4.140625q3.703125 -4.15625 3.703125 -12.453125q0 -8.203125 -3.59375 -12.234375q-3.59375 -4.046875 -9.5625 -4.046875q-5.953125 0 -9.59375 4.09375q-3.640625 4.078125 -3.640625 12.3125z" fill-rule="nonzero"/>
    </g>
</svg>